<?xml version="1.0" encoding="utf-8"?>
<!-- Generator: Adobe Illustrator 26.3.1, SVG Export Plug-In . SVG Version: 6.00 Build 0)  -->
<svg version="1.1" id="Layer_1" xmlns="http://www.w3.org/2000/svg" xmlns:xlink="http://www.w3.org/1999/xlink" x="0px" y="0px"
	 viewBox="0 0 2145.6 2351.3" style="enable-background:new 0 0 2145.6 2351.3;" xml:space="preserve">
<style type="text/css">
	.st0{fill:#331D4A;}
	.st1{fill:#D2C2DD;}
	.st2{opacity:0.45;fill:#FDFAE0;}
	.st3{fill:none;stroke:#FFFFFF;stroke-width:15.3653;stroke-miterlimit:10;}
	.st4{fill:none;}
	.st5{font-family:'Aurora';}
	.st6{font-size:333.7036px;}
</style>
<g>
	<path class="st0" d="M2528.9,1583.8c0.5,1.4,1.1,2.8,1.6,4.2C2531.5,1590.7,2530.8,1573.3,2528.9,1583.8z"/>
</g>
<path class="st0" d="M-409.2,933.5"/>
<g>
	<g>
		<path class="st0" d="M925,545.8c0,0,0.1,0,0.1,0c24.9,7.2,45.6,18.7,60.4,35.4c13.3-20.7,28.5-40.2,46.2-58.3
			c10.8-11.1,23.3-20.9,36.2-29.7c26.2-17.9,61-18.7,87.9-1.8c24.3,15.3,43.8,35.6,61.2,57.9c8.2,10.5,15.8,21.5,23,32.8
			c9.3-10.5,20.9-19.3,35.1-26.3c0.3-0.2,0.6-0.3,1-0.5c0,0,0,0,0,0c7.7-3.7,16.1-6.8,25-9.4c0,0,0.1,0,0.1,0c6.4-1.9,10-8,8-13.7
			c-0.6-1.8-1.3-3.6-2-5.4c-20-51.9-46-100.8-84.4-143.3c-18-20.6-38.2-39.1-63.1-53.3c-15-8.5-32.2-12.4-49.3-11.8
			c-15.3,0.3-30.4,4.2-43.8,11.9c-23.9,13.6-43.4,31.3-60.9,50.8c-39.6,43-66.2,92.8-86.6,145.7c-0.7,1.8-1.3,3.6-2,5.4
			C915,537.9,918.6,544,925,545.8z"/>
		<path class="st0" d="M717.5,901.9c-12.5-25.7-23.9-51.8-35.1-78.1c-12.1-28.4-7.3-50.9,16.8-70.7c13.3-10.9,28.3-20.6,44.1-27.6
			c51.6-23,105.8-36.8,162.6-38.8c9.8-0.3,19.9,0.4,29.8,1.9c9.6-27,20.6-53.2,34-78.1c-13.8-18.7-35.8-31.5-65.2-37
			c-15.8-3-32.3-4.6-48.4-4.1c-70.7,2.2-138.1,17.9-202.2,43.8c-19.6,7.9-38.2,18.9-54.8,31.2c-30,22.3-35.9,47.8-20.9,79.8
			c13.9,29.6,28.1,59.2,43.6,88.1c16.9,31.5,37.4,61.3,65.5,86.2c12.5,11.1,26.3,19.7,41.9,25.4C725,916.7,721.1,909.3,717.5,901.9z
			"/>
		<path class="st0" d="M1551.1,993.8c-5.9-15.6-15.7-30.1-24.2-44.9c-1-1.7-5.6-3.4-7.5-2.7c-14.1,5-28.3,8.3-42.5,10.1
			c-5.9,7.5-12.3,14.8-19.3,21.6c-8.8,8.6-18.3,15.5-28.9,20.5c5.3,6.4,20.9,31.4,21.6,32.8c7.5,14.4,16.2,28.6,21.4,43.8
			c9.9,28.8,16.1,58.1,15.4,88.2c9.3-1.2,18.5-2.7,27.6-4.4c26.3-4.9,46.5-23.8,50.9-47.3C1573.2,1071,1565.6,1031.9,1551.1,993.8z"
			/>
		<path class="st0" d="M748.4,1074c5.2-15.3,13.9-29.4,21.4-43.8c0.7-1.4,16.3-26.4,21.6-32.8c-10.6-5-20.2-11.9-28.9-20.5
			c-6.8-6.6-13-13.6-18.7-20.8c-15.9-1.7-31.7-5.1-47.5-10.7c-1.9-0.7-6.5,1-7.5,2.7c-8.5,14.8-18.3,29.3-24.2,44.9
			c-14.4,38.1-22,77.2-14.6,117.7c4.3,23.5,24.6,42.5,50.9,47.3c10.6,2,21.3,3.6,32.1,4.9C732.2,1132.5,738.5,1103,748.4,1074z"/>
		<path class="st1" d="M811.9,954c-23.2,4.1-46.4,5.5-69.6,3.1c5.7,7.3,11.9,14.3,18.7,20.8c8.8,8.6,18.3,15.5,28.9,20.5
			c-5.3,6.4-20.9,31.4-21.6,32.8c-7.5,14.4-16.2,28.6-21.4,43.8c-9.9,29-16.2,58.5-15.4,88.9c9.4,1.1,18.9,1.9,28.3,2.3
			c20.9,0.9,41.9,1.8,62.9,1.7c-3.1-4.9-5.3-10.3-6.3-16.2c-5.1-31,0-60.8,9.8-89.9c4-11.9,10.6-23,16.4-34.2
			c0.6-1.1,12.5-20.6,16.5-25.6c-8.1-3.9-15.4-9.3-22.1-16C827.3,976.3,819.1,965.5,811.9,954z"/>
		<path class="st1" d="M993.4,707.6c-4.7-15.4-6.9-31.4-7.8-47.7c-1-19.3-6.7-36-16.7-49.6c-13.3,24.9-24.4,51.1-34,78.1
			c-9.8-1.5-19.9-2.3-29.8-1.9c-56.8,2-111.1,15.8-162.6,38.8c-15.7,7-30.8,16.7-44.1,27.6c-24.1,19.8-28.9,42.3-16.8,70.7
			c11.2,26.2,22.6,52.4,35.1,78.1c3.6,7.5,7.5,14.9,11.6,22.1c9.5,3.5,19.7,5.8,30.6,6.9c16.3,1.6,32.4,1.6,48.3,0.1
			c-0.7-1.5-1.5-3-2.2-4.5c-9.6-20-18.3-40.5-26.8-61c-9.3-22.2-5.6-39.8,12.9-55.2c10.2-8.5,21.7-16.1,33.7-21.6
			c39.4-17.9,80.9-28.7,124.4-30.3c7.5-0.3,15.2,0.3,22.8,1.5C978.2,741.8,985.2,724.4,993.4,707.6z"/>
		<path class="st1" d="M1217.6,549.1c-17.4-22.4-36.9-42.6-61.2-57.9c-26.8-16.9-61.7-16-87.9,1.8c-12.9,8.8-25.4,18.7-36.2,29.7
			c-17.7,18.1-32.9,37.7-46.2,58.3c7.8,8.7,14,18.9,18.3,30.7c5.5,14.7,7.4,30.6,9.4,46.1c0.5,4.1,1,8.1,1.6,12.2
			c9.2-13.8,19.5-27,31.2-39.2c8.3-8.6,17.8-16.3,27.7-23.2c20-14,46.7-14.6,67.2-1.4c18.6,11.9,33.5,27.8,46.8,45.2
			c7.7,10.1,14.8,20.7,21.3,31.7c1.7-8.3,2.8-16.7,3.9-25.2c2-15.5,3.9-31.4,9.4-46.1c3.5-9.6,8.3-18.1,14.2-25.6
			c1.1-1.4,2.3-2.9,3.5-4.2C1233.4,570.6,1225.8,559.7,1217.6,549.1z"/>
		<path class="st1" d="M1477,956.4c-26.1,3.4-52.2,1.8-78.4-3.2c-7.3,11.7-15.7,22.7-25.6,32.7c-6.7,6.7-14,12.1-22.1,16
			c4.1,5,16,24.5,16.5,25.6c5.8,11.3,12.4,22.3,16.4,34.2c9.8,29.1,14.9,59,9.8,89.9c-1,5.9-3.2,11.4-6.3,16.2
			c22.4,0.2,44.8-0.7,67.1-1.7c10.9-0.5,21.9-1.5,32.8-2.9c0.7-30.1-5.5-59.4-15.4-88.2c-5.2-15.3-13.9-29.4-21.4-43.8
			c-0.7-1.4-16.3-26.4-21.6-32.8c10.6-5,20.2-11.9,28.9-20.5C1464.8,971.2,1471.1,964,1477,956.4z"/>
		<path class="st0" d="M1503.6,902.8c12.5-25.7,23.9-51.8,35.1-78.1c12.1-28.4,7.3-50.9-16.8-70.7c-13.3-10.9-28.3-20.6-44.1-27.6
			c-51.6-23-105.8-36.8-162.6-38.8c-9.8-0.3-19.9,0.4-29.8,1.9c-9.6-27-20.6-53.2-34-78.1c13.8-18.7,35.8-31.5,65.2-37
			c15.8-3,32.3-4.6,48.4-4.1c70.7,2.2,138.1,17.9,202.2,43.8c19.6,7.9,38.2,18.9,54.8,31.2c30,22.3,35.9,47.8,20.9,79.8
			c-13.9,29.6-28.1,59.2-43.6,88.1c-16.9,31.5-37.4,61.3-65.5,86.2c-12.5,11.1-26.3,19.7-41.9,25.4
			C1496.1,917.7,1500,910.3,1503.6,902.8z"/>
		<path class="st1" d="M1227.7,708.6c4.7-15.4,6.9-31.4,7.8-47.7c1-19.3,6.7-36,16.7-49.6c13.3,24.9,24.4,51.1,34,78.1
			c9.8-1.5,19.9-2.3,29.8-1.9c56.8,2,111.1,15.8,162.6,38.8c15.7,7,30.8,16.7,44.1,27.6c24.1,19.8,28.9,42.3,16.8,70.7
			c-11.2,26.2-22.6,52.4-35.1,78.1c-3.6,7.5-7.5,14.9-11.6,22.1c-9.5,3.5-19.7,5.8-30.6,6.9c-16.3,1.6-32.4,1.6-48.3,0.1
			c0.7-1.5,1.5-3,2.2-4.5c9.6-20,18.3-40.5,26.8-61c9.3-22.2,5.6-39.8-12.9-55.2c-10.2-8.5-21.7-16.1-33.7-21.6
			c-39.4-17.9-80.9-28.7-124.4-30.3c-7.5-0.3-15.2,0.3-22.8,1.5C1242.9,742.7,1235.9,725.3,1227.7,708.6z"/>
	</g>
	<path class="st2" d="M1267.4,664.1c-0.1-0.3-0.2-0.7-0.3-1C1267.5,660.6,1267.6,664.8,1267.4,664.1z"/>
	<path class="st2" d="M1267.4,664.1c-0.1-0.3-0.2-0.7-0.3-1C1267.5,660.6,1267.6,664.8,1267.4,664.1z"/>
	<path class="st3" d="M1526.6,752c-13.3-10.9-28.3-20.6-44.1-27.6c-51.6-23-105.8-36.8-162.6-38.8c-10-0.3-20.2,0.4-30.2,2
		c-17.6-49.3-41.8-97.5-74-139c-17.4-22.4-36.9-42.6-61.2-57.9c-26.8-16.9-61.7-16-87.9,1.8c-12.9,8.8-25.4,18.7-36.2,29.7
		c-46.2,47.2-75.4,104.2-97.1,165.3c-9.8-1.5-19.9-2.3-29.8-1.9c-56.8,2-111.1,15.8-162.6,38.8c-15.7,7-30.8,16.7-44.1,27.6
		c-24.1,19.8-28.9,42.3-16.8,70.7c11.2,26.2,22.6,52.4,35.1,78.1c13.6,27.9,30.1,54.3,52.7,76.4c8.8,8.6,18.3,15.5,28.9,20.5
		c-5.3,6.4-20.9,31.4-21.6,32.8c-7.5,14.4-16.2,28.6-21.4,43.8c-12.8,37.3-19.5,75.5-12.8,115.1c3.9,22.9,21.8,41.1,45,45.8
		c17.6,3.6,35.6,6.2,53.5,7c38.8,1.9,77.8,3.8,116.3-3.3c74.4-13.8,127.1-53.1,154-121.8c0.7-1.7,1.3-3.3,1.9-5
		c0.6,1.7,1.2,3.3,1.9,5c26.9,68.8,79.7,108.1,154.1,121.9c38.5,7.1,77.5,5.2,116.3,3.3c17.9-0.9,35.9-3.5,53.5-7
		c23.2-4.7,41.1-22.9,45-45.8c6.7-39.6,0-77.8-12.8-115.1c-5.2-15.3-13.9-29.4-21.4-43.8c-0.7-1.4-16.3-26.4-21.6-32.8
		c10.6-5,20.2-11.9,28.9-20.5c22.6-22.1,39.1-48.4,52.7-76.4c12.5-25.7,23.9-51.8,35.1-78.1C1555.5,794.3,1550.8,771.8,1526.6,752z"
		/>
	<g>
		<path class="st0" d="M1293,916.3c-0.2-2.9-0.4-5.7-0.7-8.6c-0.3-2.9-0.7-5.7-1.1-8.5c-0.4-2.8-0.9-5.7-1.5-8.5
			c-0.6-2.8-1.2-5.6-2-8.4c-0.7-2.8-1.5-5.5-2.4-8.3c-0.9-2.7-1.8-5.5-2.8-8.2c-1-2.7-2.1-5.4-3.2-8c-1.1-2.6-2.4-5.3-3.6-7.9
			c-1.3-2.6-2.6-5.1-4-7.7c-1.4-2.5-2.9-5-4.4-7.5c-1.5-2.5-3.1-4.9-4.8-7.3c-1.7-2.4-3.4-4.7-5.1-7c-1.8-2.3-3.6-4.6-5.5-6.8
			c-1.9-2.2-3.8-4.4-5.8-6.5c-2-2.1-4.1-4.2-6.2-6.2c-2.1-2-4.3-4-6.5-5.9c-2.2-1.9-4.5-3.8-6.8-5.6c-2.3-1.8-4.7-3.6-7-5.3
			c-2.4-1.7-4.8-3.4-7.3-5c-2.5-1.6-5-3.1-7.5-4.6c-2.6-1.5-5.1-2.9-7.8-4.2c-2.6-1.3-5.3-2.6-8-3.9c-2.7-1.2-5.4-2.4-8.2-3.5
			c-2.8-1.1-5.5-2.1-8.3-3.1c-2.8-1-5.6-1.9-8.5-2.7c-2.9-0.8-5.7-1.6-8.6-2.3c-2.9-0.7-5.8-1.3-8.7-1.9c-2.9-0.6-5.9-1.1-8.8-1.5
			c-2.9-0.4-5.9-0.8-8.9-1.1c-3-0.3-5.9-0.5-8.9-0.6c-3-0.1-6-0.2-8.9-0.2c-3,0-6,0.1-8.9,0.2c-3,0.1-5.9,0.4-8.9,0.6
			c-3,0.3-5.9,0.6-8.9,1.1c-2.9,0.4-5.9,0.9-8.8,1.5c-2.9,0.6-5.8,1.2-8.7,1.9c-2.9,0.7-5.8,1.5-8.6,2.3c-2.8,0.8-5.7,1.7-8.5,2.7
			c-2.8,1-5.6,2-8.3,3.1c-2.8,1.1-5.5,2.3-8.2,3.5c-2.7,1.2-5.4,2.5-8,3.9c-2.6,1.4-5.2,2.8-7.8,4.2c-2.6,1.5-5.1,3-7.5,4.6
			c-2.5,1.6-4.9,3.2-7.3,5c-2.4,1.7-4.7,3.5-7,5.3c-2.3,1.8-4.6,3.7-6.8,5.6c-2.2,1.9-4.4,3.9-6.5,5.9c-2.1,2-4.2,4.1-6.2,6.2
			c-2,2.1-3.9,4.3-5.8,6.5c-1.9,2.2-3.7,4.5-5.5,6.8c-1.8,2.3-3.5,4.6-5.1,7c-1.7,2.4-3.2,4.8-4.8,7.3c-1.5,2.5-3,4.9-4.4,7.5
			c-1.4,2.5-2.8,5.1-4,7.7c-1.3,2.6-2.5,5.2-3.6,7.9c-1.1,2.6-2.2,5.3-3.2,8c-1,2.7-1.9,5.4-2.8,8.2c-0.9,2.7-1.7,5.5-2.4,8.3
			c-0.7,2.8-1.4,5.6-2,8.4c-0.6,2.8-1.1,5.6-1.5,8.5c-0.4,2.8-0.8,5.7-1.1,8.5c-0.3,2.8-0.5,5.7-0.7,8.6c-0.2,2.9-0.2,5.7-0.2,8.6
			c0,83.7,67.9,180,118.7,240.9c8.1,9.6,20,15.2,32.5,15.2l63.3-0.1c12.5,0,24.4-5.5,32.4-15.1c50.6-60.5,117.2-156.2,117.2-240.8
			C1293.2,922,1293.1,919.1,1293,916.3z M1220.1,975.8c-21.4,38.2-62.3,63.9-109.1,63.9s-87.7-25.8-109.1-63.9
			c-1.2-2.2-0.4-5,1.9-6.1l15.4-7.6c7.2-3.5,15.9-1.5,20.6,4.9c16.1,21.8,42,36,71.1,36c29.1,0,55-14.2,71.1-36
			c4.7-6.4,13.5-8.4,20.6-4.9l15.5,7.6C1220.4,970.8,1221.3,973.6,1220.1,975.8z M1235.2,910.4c0,8.9-6.2,16.7-14.8,18.7l-3.2,0.8
			c-34.7,8.1-71.3,11.9-106.6,12.1c-35.3-0.2-71.9-4.1-106.6-12.1l-3.2-0.8c-8.7-2-14.8-9.8-14.8-18.7v0c0-7.5,0.7-14.9,2-22.1
			c10.4-58.4,61.3-102.7,122.6-103v0c0,0,0.1,0,0.1,0c0,0,0.1,0,0.1,0v0c61.3,0.3,112.2,44.6,122.6,103
			C1234.5,895.5,1235.2,902.8,1235.2,910.4L1235.2,910.4z"/>
		<path class="st0" d="M1110.5,822c-41,0.2-75.4,28.4-85.2,66.3l0,0c27.2,10,56.6,13.7,85.2,13.8c28.6-0.1,58-3.8,85.2-13.8l0,0
			C1185.9,850.3,1151.5,822.2,1110.5,822z"/>
	</g>
	<g>
		<rect x="149.2" y="1267.5" class="st4" width="1898.8" height="506.1"/>
		<text transform="matrix(1 0 0 1 315.2598 1494.4268)" class="st0 st5 st6">Dr.Erfan</text>
	</g>
	<g>
		<path class="st0" d="M912.2,1628.9c0,8.6-9.5,19.8-19,27.6c1.7,1.3,3.5,5.2,3.5,8.2c0,59.1-83.3,176.5-140.2,221.8
			c-16.8,13.4-45.7,31.5-69,31.5c-25.9,0-36.2-18.1-36.2-37.1c0-25.5,17.7-60.8,26.7-79c20.3-39.7,46.2-75.9,75.9-109.6
			c-44,4.7-75.5,19.4-101,54.4c-2.2,2.2-4.7,5.2-7.8,5.2c-1.7,0-2.2,0-2.2-0.9c0-7.8,22.9-33.7,26.8-37.1
			c24.6-22.9,55.2-27.6,88.9-29.8c5.2-0.4,5.6-0.9,7.3-3.5l3.5-3.9H769c25.5-24.6,72.9-63.4,113.9-63.4c5.2,0,11.2,0.9,16.4,2.6
			C908.8,1619,912.2,1623.3,912.2,1628.9z M890.7,1660.4l-0.9-1.3c-34.5,25.5-76.8,29.8-116.5,31.1c-6.5,0.4-49.6,60.4-55.2,69
			c-10.4,16-53.1,86.7-53.1,125.6c0,15.5,7.8,26.3,23.7,26.3c23.7,0,57-23.7,71.2-35.8c41.9-36.2,77.7-88.9,103.5-137.2
			c12.9-24.2,20.7-43.6,25.5-71.2C889.4,1664.3,889.8,1662.1,890.7,1660.4z M899.7,1642.3h-0.4c4.7-5.2,6.5-9.1,6.5-11.7
			c0-7.8-10.4-9.9-21.1-9.9c-38.8,0-77.7,34.1-105.7,62.6c1.7,0,3.9,0.4,4.7,0.4c3,0,6-0.4,8.6-0.9
			C825.5,1680.3,877.3,1668.2,899.7,1642.3z"/>
		<path class="st0" d="M1007.6,1812.3c1.7,0,2.6,0.4,2.6,1.3c0,2.2-2.2,5.2-3.9,6.9v-0.4c-18.6,12.5-78.5,70.8-100.1,70.8
			c-9.5,0-12.9-6.9-12.9-13.4c0-17.3,22.9-49.6,33.2-63.9l4.7-6.5c-12.9-2.6-16-10.8-20.3-10.8c-2.6,0-8.2,10.4-23.7,24.6
			c-0.9,0.9-6,5.6-9.5,5.6c-0.9,0-1.7-0.9-1.7-2.2c-0.4-5.6,9.5-12.5,13.8-16.8l4.3-4.3v0.4c6.5-5.6,11.6-13.8,11.6-14.2
			c0-0.4,0-0.9-0.9-1.7h0.4c-1.3-1.7-4.3-6-4.3-16.8c0-11.2,5.6-22.4,17.7-22.4c8.6,0,11.6,6,11.6,12.1c0,7.3-4.3,16.4-7.8,21.6
			l-5.2,8.2c17.3,17.3,31.1,9.9,31.1,13.4c0,4.3-7.8,16-12.1,22.4l-3,4.3c-5.6,8.6-28.5,43.1-28.9,52.6c1.3,1.3,1.7,1.3,2.2,1.3
			c16.4,0,94.5-70.3,99.7-71.6C1006.7,1812.7,1007.2,1812.3,1007.6,1812.3z M914.8,1755.3c-4.3,3.5-5.6,7.8-5.6,12.9
			c0,5.6,1.7,11.7,3.9,16.4c3-3.5,10.8-14.7,10.8-22.4c0-3.5-2.2-7.3-6-7.3c-0.4,0-0.9,0.4-1.3,0.4H914.8z"/>
		<path class="st0" d="M1128,1813.6c0.4,11.2-80.2,67.3-116.5,67.3c-16.8,0-26.7-9.1-26.7-23.7c0-30.2,38.4-79,69-79
			c13.8,0,19.8,8.2,19.8,19.4c0,9.5-3.9,19-8.6,19.4c-3,0-3.9-0.9-3.9-3c0-7.8,5.6-16.4,5.6-19.4c0-6-4.3-9.1-9.5-9.1
			c-6,0-13.4,3-17.7,6.5c-14.2,11.2-43.1,51.8-43.1,72.1c0,7.8,4.7,9.9,13.4,9.9c38.4,0,76.8-32.4,107-57c3-2.6,6.5-5.2,9.1-5.2
			c0.9,0,1.7,0.4,2.2,1.3V1813.6z"/>
		<path class="st0" d="M1134,1811.9l-3,5.2c-3.9,6.9-6.5,10.8-6.5,13.4h0.4c4.3,0,34.9-38.8,57-38.8c4.7,0,12.9,3.5,12.9,12.9
			c0,19.4-34.5,57-34.5,68.6c0,2.6,0.9,4.3,4.3,4.3c19,0,72.9-62.1,81.5-64.7c1.3-0.4,2.6-0.9,3-0.9c0.9,0,1.3,0.4,1.3,1.3
			c0,2.6-2.2,6-4.3,8.2c-12.5,13.4-57.4,63-81.5,63c-11.2,0-15.5-9.5-15.5-15.5c0-21.1,37.1-54.8,37.1-66.4c0-2.2-1.7-3.9-5.2-3.9
			c-20.7,0-72.5,63.9-86.7,82.8c-2.2,2.2-6.9,5.2-9.5,5.2c-1.7,0-3-0.9-3-3.5c0-21.6,139.8-245.1,203.6-245.1
			c11.6,0,18.1,6.9,18.1,16.4c0,27.6-48.8,63.9-70.3,80.3l-6.5,5.6v-0.4c-23.7,18.1-47.9,31.5-74.6,45.7
			C1148.2,1788.1,1139.2,1803.2,1134,1811.9z M1159,1773l0.9,0.9c22-12.9,137.2-84.6,137.2-117.8c0-8.6-6-10.8-10.8-11.2
			C1244,1646.2,1181.9,1737.2,1159,1773z"/>
		<path class="st0" d="M1322.1,1813.1c0,2.2-0.4,4.3-0.9,4.7c-3.9,3.9-53.9,56.1-88,56.1c-9.9,0-13.4-3.5-13.4-11.2
			c0-17.3,24.6-49.6,25.9-57c3-4.7,6.9-7.3,9.9-7.3c3,0,5.2,2.2,5.2,6c0,2.2-0.4,4.7-2.6,8.2c-5.6,9.1-26.3,42.3-26.3,52.6
			c0.9,1.7,2.6,2.2,4.7,2.2c22.4,0,81.5-57.4,83.3-57.4S1322.1,1811.4,1322.1,1813.1z M1268.6,1784.2c-3.9,0-6.9-2.6-6.9-6
			c0-2.6,3.9-9.1,12.1-9.1c3,0,5.6,1.3,5.6,4.7c0,0.4-0.4,2.2-0.9,3.5C1275.1,1782.1,1271.6,1784.2,1268.6,1784.2z"/>
		<path class="st0" d="M1400.6,1793.7c-22.9,15.5-18.1,9.5-29.8,28l-7.3,11.7c-6.9,11.2-22.4,38.8-22.9,49.6c0,3,1.7,5.2,4.7,5.2
			c34.9,0,125.6-76.8,131.6-76.8c1.3,0,1.7,0.4,1.7,1.7c0,5.6-97.9,82-134.2,82c-10.4,0-13.8-7.8-13.8-15.5
			c0-14.2,10.8-34.1,15.5-42.3l-1.3-0.9l-1.7,1.3v-0.4c-8.2,6.9-35.8,30.2-49.2,30.2c-3.9,0-7.3-2.2-7.3-8.6
			c0-23.3,39.3-73.4,63-73.4c5.6,0,12.5,4.7,12.5,13.4c0,4.3-2.2,7.3-3.9,7.3c-1.7,0-1.7-2.6-2.6-5.2c-0.9-3.5-2.6-7.8-6-7.8
			c-14.7,0-53.5,60.4-53.5,66.9c9.1,0,61.3-41.4,67.7-50.9c28.5-41.4,108.7-163.1,156.6-163.1c10.8,0,18.6,6,18.6,16
			c0,36.2-91.9,99.7-129,125.1L1400.6,1793.7z M1389.9,1792.9l0.9,0.9c31.9-18.6,128.6-94.1,139.4-120.8c1.3-3.5,2.2-6.9,2.2-9.9
			c0-5.2-3-9.1-10.4-9.9C1477.4,1654.8,1413.1,1754.9,1389.9,1792.9z"/>
	</g>
</g>
</svg>
